<svg xmlns="http://www.w3.org/2000/svg" width="711" height="195.288" viewBox="0 0 711 195.288">
  <g id="Group_2142" data-name="Group 2142" transform="translate(-6128 2278)">
    <g id="Group_2139" data-name="Group 2139" transform="translate(6367.101 -2248.28)">
      <path id="path20" d="M102.573-145.924l1.109,5.178a25.081,25.081,0,0,1-10.729,2.126q-8.285,0-13.391-5.071t-5.1-13.214q0-8.477,5.494-13.829t14.427-5.34a21.027,21.027,0,0,1,9.493,2.029l-1.484,5.275a16.32,16.32,0,0,0-7.936-1.854,12.427,12.427,0,0,0-9.423,3.71,13.206,13.206,0,0,0-3.536,9.515c0,4.013,1.189,7.2,3.583,9.574a12.407,12.407,0,0,0,9.136,3.563,21.9,21.9,0,0,0,8.36-1.664" transform="translate(-74.459 193.005)" fill="#40b13c"/>
      <path id="path22" d="M122.576-159.03a18.781,18.781,0,0,0-3.958-12.1q-3.953-4.957-11.354-4.946-8.02,0-12.782,5.547a20.531,20.531,0,0,0-4.746,13.775q0,8.21,4.961,13.177t13.329,4.954a30.216,30.216,0,0,0,12.512-2.4l-1.178-4.816a27.315,27.315,0,0,1-10.449,1.845,12.873,12.873,0,0,1-8.919-3.07q-3.449-3.074-3.589-8.852H122.36a16.729,16.729,0,0,0,.216-3.121ZM99.84-168.349a9.2,9.2,0,0,1,6.914-2.826,8.369,8.369,0,0,1,6.777,2.826,11.122,11.122,0,0,1,2.384,7.44H96.467a12.893,12.893,0,0,1,3.373-7.44" transform="translate(-57.26 193.005)" fill="#40b13c"/>
      <path id="path24" d="M108.559-139.456V-165.4c0-3.979-.089-7.256-.278-9.846H114.3l.548,5.995a12.89,12.89,0,0,1,5-4.952,14.441,14.441,0,0,1,7.229-1.868,12.289,12.289,0,0,1,9.367,3.977q3.765,3.971,3.757,11.629v21.011h-6.846v-20.305q0-5.076-2.2-7.871a7.524,7.524,0,0,0-6.329-2.8,9.112,9.112,0,0,0-6.563,2.775,9.071,9.071,0,0,0-2.856,6.771v21.433h-6.847" transform="translate(-36.384 193.005)" fill="#40b13c"/>
      <path id="path26" d="M131.333-177.78l6.752-1.993v8.69h9.529v5.272h-9.529v18.681c0,2.489.41,4.288,1.209,5.394a4.44,4.44,0,0,0,3.836,1.641,13.72,13.72,0,0,0,3.931-.459l.3,5.178a18.144,18.144,0,0,1-6.155.921q-9.875,0-9.871-12.275v-19.081H125.7v-5.272h5.635v-6.7" transform="translate(-16.777 188.84)" fill="#40b13c"/>
      <path id="path28" d="M156.39-139.456v-24.4q0-6.964-.281-11.394h6.009l.468,7.2a12.5,12.5,0,0,1,4.178-5.915,9.9,9.9,0,0,1,6.094-2.109,15.8,15.8,0,0,1,1.837.142v6.55a10.935,10.935,0,0,0-2.364-.221,8.419,8.419,0,0,0-6.414,2.922q-2.678,2.921-2.684,8.313v18.911H156.39" transform="translate(17.458 193.005)" fill="#40b13c"/>
      <path id="path30" d="M171.4-159.7a18.817,18.817,0,0,0-3.951-12.1q-3.962-4.957-11.36-4.946-8.018,0-12.772,5.547a20.458,20.458,0,0,0-4.747,13.775c0,5.473,1.641,9.872,4.954,13.177s7.752,4.954,13.321,4.954a30.239,30.239,0,0,0,12.522-2.4l-1.19-4.816a27.232,27.232,0,0,1-10.442,1.845,12.849,12.849,0,0,1-8.917-3.07q-3.444-3.074-3.588-8.852h25.954A16.961,16.961,0,0,0,171.4-159.7Zm-22.734-9.319a9.2,9.2,0,0,1,6.907-2.826,8.382,8.382,0,0,1,6.783,2.826,11.159,11.159,0,0,1,2.384,7.44H145.3a12.827,12.827,0,0,1,3.364-7.44" transform="translate(-2.287 192.255)" fill="#40b13c"/>
      <path id="path32" d="M183.883-130.489H177.04v-30.52h-5v-5.272h5v-1.63q0-7.7,3.486-11.913t9.708-4.215a15.164,15.164,0,0,1,5.683,1.02l-.819,5.36a11.416,11.416,0,0,0-4.283-.737q-7.015,0-7,10.269v1.845h8.769v5.272h-8.7v30.52" transform="translate(35.397 184.038)" fill="#40b13c"/>
      <path id="path34" d="M213.835-170.954q-4.983-5.115-13-5.119a18.334,18.334,0,0,0-13.33,5.156q-5.289,5.161-5.277,13.866c0,5.456,1.695,9.892,5.116,13.307a17.537,17.537,0,0,0,12.97,5.124,19.548,19.548,0,0,0,9.382-2.324,16.612,16.612,0,0,0,6.749-6.666,20.491,20.491,0,0,0,2.4-10.1Q218.846-165.827,213.835-170.954Zm-21.555,3.875a9.854,9.854,0,0,1,8.239-3.911,9.669,9.669,0,0,1,8.143,3.954,15.408,15.408,0,0,1,2.979,9.538,14.9,14.9,0,0,1-3.243,9.934,10.162,10.162,0,0,1-8.106,3.857,9.759,9.759,0,0,1-7.882-3.835,14.768,14.768,0,0,1-3.146-9.73,15.544,15.544,0,0,1,3.016-9.807" transform="translate(46.863 193.005)" fill="#40b13c"/>
      <path id="path36" d="M202.818-139.456v-24.4q0-6.964-.272-11.394h6.012l.468,7.2a12.408,12.408,0,0,1,4.169-5.915,9.944,9.944,0,0,1,6.105-2.109,15.928,15.928,0,0,1,1.842.142v6.55a11.083,11.083,0,0,0-2.364-.221,8.439,8.439,0,0,0-6.428,2.922c-1.783,1.947-2.684,4.719-2.684,8.313v18.911h-6.848" transform="translate(69.735 193.005)" fill="#40b13c"/>
      <path id="path38" d="M218.745-139.893v-3.877l16.442-20.654c1.525-1.814,3.186-3.784,4.949-5.893h-20v-5.368H248.61l-.068,4.11-16.207,20.433c-2.18,2.681-3.8,4.646-4.889,5.89H248.9v5.36h-30.16" transform="translate(87.971 193.442)" fill="#40b13c"/>
      <path id="path40" d="M259.6-172.227q-3.563-3.843-10.552-3.846a22.691,22.691,0,0,0-12.338,3.251l1.556,4.512A17.576,17.576,0,0,1,248-171.079q4.1,0,6.176,2.134a8.178,8.178,0,0,1,2.086,5.975v.672q-10.85,0-16.5,3.447a11,11,0,0,0-5.652,9.957,9.859,9.859,0,0,0,3.064,7.267,11.165,11.165,0,0,0,8.16,3.007A13.271,13.271,0,0,0,256.629-144l.819,4.541h6.267a54,54,0,0,1-.547-8.582V-161.13q0-7.253-3.571-11.1Zm-5.83,26.1a9.286,9.286,0,0,1-6.527,2.421,6.08,6.08,0,0,1-4.419-1.61,5.938,5.938,0,0,1-1.672-4.473,6.433,6.433,0,0,1,3.345-5.714q3.329-2.066,11.921-2.075v5.989a7.28,7.28,0,0,1-2.647,5.462" transform="translate(105.275 193.005)" fill="#40b13c"/>
      <path id="path42" d="M258.991-183.648l.145,33.15a52.7,52.7,0,0,1,3.373-4.164l10.646-12.06h8.4l-14.333,14.554,16.368,21.238h-8.514l-12.548-17.063-3.54,3.773v13.29h-6.853v-52.719h6.853" transform="translate(125.564 184.478)" fill="#40b13c"/>
      <path id="path44" d="M293.151-172.227q-3.559-3.843-10.544-3.846a22.643,22.643,0,0,0-12.343,3.251l1.553,4.512a17.559,17.559,0,0,1,9.739-2.769c2.724,0,4.79.709,6.179,2.134a8.2,8.2,0,0,1,2.089,5.975v.672q-10.863,0-16.5,3.447a10.98,10.98,0,0,0-5.657,9.957,9.841,9.841,0,0,0,3.067,7.267,11.145,11.145,0,0,0,8.157,3.007c4.841,0,8.611-1.783,11.295-5.377l.813,4.541h6.27a53.276,53.276,0,0,1-.55-8.582V-161.13q0-7.253-3.571-11.1Zm-5.825,26.1a9.308,9.308,0,0,1-6.53,2.421,6.052,6.052,0,0,1-4.413-1.61,5.921,5.921,0,0,1-1.681-4.473,6.408,6.408,0,0,1,3.347-5.714q3.337-2.066,11.916-2.075v5.989a7.28,7.28,0,0,1-2.639,5.462" transform="translate(143.049 193.005)" fill="#40b13c"/>
      <path id="path46" d="M289.329-177.78l6.763-1.993v8.69h9.521v5.272h-9.521v18.681q0,3.733,1.2,5.394a4.459,4.459,0,0,0,3.838,1.641,13.8,13.8,0,0,0,3.934-.459l.295,5.178a18.113,18.113,0,0,1-6.156.921q-9.864,0-9.872-12.275v-19.081h-5.635v-5.272h5.635v-6.7" transform="translate(161.088 188.84)" fill="#40b13c"/>
      <path id="path48" d="M101.189-106.877v-29.6q0-6.781-.318-11.216h6.856l.582,6.669a14.642,14.642,0,0,1,13.348-7.619,12.208,12.208,0,0,1,7.2,2.21,13.76,13.76,0,0,1,4.787,6.081q5.021-8.288,14.025-8.291a12.541,12.541,0,0,1,10.007,4.608q3.933,4.59,3.941,13.449v23.709h-7.7v-22.772q0-6.059-2.345-9.312a7.756,7.756,0,0,0-6.695-3.241,9.294,9.294,0,0,0-6.694,2.882,9.937,9.937,0,0,0-2.935,7.4v25.04h-7.7v-24.11q0-5.186-2.321-8.2a7.611,7.611,0,0,0-6.382-3.015,9.22,9.22,0,0,0-6.947,3.286,10.966,10.966,0,0,0-3.012,7.664v24.375h-7.7" transform="translate(-97.022 224.985)" fill="#40b13c"/>
      <path id="path50" d="M157.972-144.245q-4.057-4.391-12.027-4.4a25.891,25.891,0,0,0-14.055,3.709l1.769,5.154a19.905,19.905,0,0,1,11.1-3.163q4.658,0,7.038,2.446a9.349,9.349,0,0,1,2.378,6.808v.759q-12.379,0-18.8,3.926a12.538,12.538,0,0,0-6.452,11.351,11.172,11.172,0,0,0,3.512,8.284,12.691,12.691,0,0,0,9.29,3.438q8.3,0,12.873-6.138l.924,5.191h7.157a60.9,60.9,0,0,1-.633-9.792V-131.6c0-5.509-1.344-9.726-4.071-12.647Zm-6.647,29.753a10.566,10.566,0,0,1-7.435,2.759,6.942,6.942,0,0,1-5.034-1.835,6.73,6.73,0,0,1-1.916-5.105,7.33,7.33,0,0,1,3.818-6.508q3.8-2.365,13.587-2.362v6.824a8.314,8.314,0,0,1-3.021,6.227" transform="translate(-57.095 224.985)" fill="#40b13c"/>
      <path id="path52" d="M147.129-106.877v-29.6q0-6.781-.313-11.216h6.847l.646,6.844a14.368,14.368,0,0,1,5.7-5.651,16.307,16.307,0,0,1,8.23-2.142,14.064,14.064,0,0,1,10.689,4.537q4.275,4.537,4.272,13.264v23.964H175.4V-130.04c0-3.852-.824-6.844-2.495-8.98a8.635,8.635,0,0,0-7.228-3.183,10.389,10.389,0,0,0-7.48,3.167,10.305,10.305,0,0,0-3.257,7.713v24.446h-7.807" transform="translate(-31.622 224.985)" fill="#40b13c"/>
      <path id="path54" d="M193.928-144.245q-4.071-4.391-12.027-4.4a25.93,25.93,0,0,0-14.069,3.709l1.771,5.154a19.915,19.915,0,0,1,11.1-3.163c3.115,0,5.458.814,7.051,2.446a9.386,9.386,0,0,1,2.368,6.808v.759q-12.374,0-18.806,3.926a12.525,12.525,0,0,0-6.43,11.351,11.179,11.179,0,0,0,3.49,8.284,12.693,12.693,0,0,0,9.3,3.438q8.283,0,12.873-6.138l.924,5.191h7.154a59.8,59.8,0,0,1-.633-9.792V-131.6q0-8.264-4.065-12.647Zm-6.637,29.753a10.622,10.622,0,0,1-7.458,2.759,6.936,6.936,0,0,1-5.031-1.835,6.744,6.744,0,0,1-1.9-5.105,7.329,7.329,0,0,1,3.8-6.508q3.8-2.365,13.587-2.362v6.824a8.342,8.342,0,0,1-3,6.227" transform="translate(-5.901 224.985)" fill="#40b13c"/>
      <path id="path56" d="M221.351-147.692h-6.844l-.333,6.136c-2.776-4.721-7.248-7.086-13.452-7.086a17.97,17.97,0,0,0-13.471,5.923q-5.642,5.928-5.655,15.739a20.411,20.411,0,0,0,5.154,14.182,16.564,16.564,0,0,0,12.87,5.7q9.093,0,13.529-7.061l.178,4.481q0,7.021-3.541,10.656t-10.1,3.635a23.4,23.4,0,0,1-12.553-3.378l-1.942,5.992q5.409,3.493,14.292,3.5,9.97,0,15.765-5.219t5.8-18.511v-23.659q0-7.362.307-11.032Zm-11.5,31.337a11.058,11.058,0,0,1-7.942,3.257,11.3,11.3,0,0,1-9.119-4.013,15.376,15.376,0,0,1-3.39-10.275c0-4.543,1.183-8.194,3.532-10.98a11.346,11.346,0,0,1,9.07-4.149,10.632,10.632,0,0,1,8.12,3.306,11.129,11.129,0,0,1,3.118,7.858v6.634a11.037,11.037,0,0,1-3.39,8.362" transform="translate(17.887 224.985)" fill="#40b13c"/>
      <path id="path58" d="M238.529-129.2a21.428,21.428,0,0,0-4.514-13.8q-4.5-5.632-12.948-5.645-9.136,0-14.554,6.33-5.433,6.344-5.422,15.7t5.655,15.022q5.661,5.659,15.2,5.657a34.331,34.331,0,0,0,14.256-2.737l-1.338-5.489a31.068,31.068,0,0,1-11.914,2.107,14.666,14.666,0,0,1-10.165-3.5c-2.63-2.336-3.984-5.7-4.107-10.1h29.608a20.371,20.371,0,0,0,.246-3.545Zm-25.934-10.631a10.532,10.532,0,0,1,7.891-3.218,9.553,9.553,0,0,1,7.729,3.218,12.712,12.712,0,0,1,2.717,8.489h-22.17a14.738,14.738,0,0,1,3.832-8.489" transform="translate(45.637 224.985)" fill="#40b13c"/>
      <path id="path60" d="M219.955-106.877v-29.6q0-6.781-.32-11.216h6.85l.607,6.669a14.622,14.622,0,0,1,13.335-7.619,12.129,12.129,0,0,1,7.183,2.21,13.71,13.71,0,0,1,4.8,6.081q5.041-8.288,14.02-8.291a12.563,12.563,0,0,1,10.01,4.608q3.931,4.59,3.936,13.449v23.709h-7.7v-22.772q0-6.059-2.346-9.312a7.75,7.75,0,0,0-6.7-3.241,9.264,9.264,0,0,0-6.689,2.882,9.936,9.936,0,0,0-2.928,7.4v25.04h-7.7v-24.11q0-5.186-2.323-8.2a7.6,7.6,0,0,0-6.378-3.015,9.2,9.2,0,0,0-6.95,3.286,11.021,11.021,0,0,0-3.012,7.665v24.375h-7.7" transform="translate(72.033 224.985)" fill="#40b13c"/>
      <path id="path62" d="M285.167-129.2a21.317,21.317,0,0,0-4.511-13.8c-2.989-3.755-7.315-5.645-12.928-5.645q-9.161,0-14.567,6.33a23.345,23.345,0,0,0-5.429,15.7q0,9.359,5.661,15.022t15.2,5.657a34.368,34.368,0,0,0,14.259-2.737l-1.341-5.489a31.086,31.086,0,0,1-11.9,2.107,14.669,14.669,0,0,1-10.175-3.5c-2.633-2.336-3.991-5.7-4.1-10.1h29.592a18.922,18.922,0,0,0,.242-3.545Zm-25.908-10.631a10.471,10.471,0,0,1,7.875-3.218,9.539,9.539,0,0,1,7.723,3.218,12.714,12.714,0,0,1,2.721,8.489H255.423a14.661,14.661,0,0,1,3.835-8.489" transform="translate(112.028 224.985)" fill="#40b13c"/>
      <path id="path64" d="M266.6-106.877v-29.6q0-6.781-.326-11.216h6.863l.637,6.844a14.381,14.381,0,0,1,5.7-5.651,16.343,16.343,0,0,1,8.24-2.142,14.077,14.077,0,0,1,10.686,4.537q4.265,4.537,4.265,13.264v23.964h-7.8V-130.04q0-5.778-2.5-8.98a8.612,8.612,0,0,0-7.232-3.183,10.382,10.382,0,0,0-7.477,3.167,10.32,10.32,0,0,0-3.26,7.713v24.446h-7.8" transform="translate(138.425 224.985)" fill="#40b13c"/>
      <path id="path66" d="M290.118-150.072l7.71-2.265v9.9h10.854v6.013H297.827v21.287q0,4.275,1.367,6.152a5.094,5.094,0,0,0,4.375,1.874,15.7,15.7,0,0,0,4.485-.53l.336,5.908a20.67,20.67,0,0,1-7.018,1.058q-11.245,0-11.255-14V-136.42h-6.424v-6.013h6.424v-7.639" transform="translate(163.218 219.726)" fill="#40b13c"/>
    </g>
    <g id="Group_2141" data-name="Group 2141" transform="translate(6128 -2278)">
      <g id="Group_2134" data-name="Group 2134" transform="translate(0 0)">
        <g id="g10">
          <g id="g12">
            <path id="path24-2" data-name="path24" d="M90.521-103.385c5.735.181,13.587,3.873,17.894,6.982,1.383.994,6.1,4.909,7.534,4.909-.4-1.316-1.063-6.737,1.755-6.032.88,1,1.764,2.006,2.632,3.007.828.73,1.66,1.477,2.48,2.212A33.839,33.839,0,0,1,128.089-82.1c.921,2.929,1.1,6.887,2.876,9.321,2.126,2.922,40.4,30.855,41.971,30.855,0,.095,4.944,2.919,4.944,3.005,0,0,.006,5.759.026,5.777-.02-.018-27.885,0-27.909,0-3.373,0-23.455-19.976-26.56-22.714-3.4-3-7.5-3.668-11.253-5.933-4.247-2.577-7.644-6.66-11.87-9.287-4.155-2.584-12.567-2.722-15.978-5.452a1.973,1.973,0,0,1-.38-2.281C85.66-81.174,98.346-77.4,100.747-77.4c0-.373-.1-.278.275-.278C99.49-82.762,80.5-85.882,81.353-89.985c.666-3.255,10.4.976,12.758.976v-.275c-2.15-.494-12.361-3.785-11.376-6.729,1.116-3.362,9.734.636,11.671,1.124,1.425.351,9.934,3.427,9.934,4.219h.275c-2.548-3.022-5.545-4.708-8.844-6.356-1.631-.82-4.028-1.48-5.235-3.016a3.218,3.218,0,0,1-.016-3.344" transform="translate(30.933 155.964)" fill="#40b13c"/>
            <path id="path14" d="M46.53-9.347l17.99,5.41A33.2,33.2,0,0,1,58.814,8.691a24.8,24.8,0,0,1-9.659,7.651q-5.77,2.575-14.685,2.577-10.8,0-17.661-3.148T4.979,4.71Q0-3.213,0-15.568,0-32.046,8.765-40.89t24.792-8.846q12.536,0,19.726,5.069,7.17,5.063,10.664,15.556l-18.13,4.069a15.825,15.825,0,0,0-1.989-4.479,11.9,11.9,0,0,0-4.216-3.663,12.017,12.017,0,0,0-5.562-1.277,12.041,12.041,0,0,0-10.688,5.616q-2.814,4.168-2.813,13.094Q20.549-4.693,23.9-.6q3.336,4.106,9.4,4.1c3.915,0,6.864-1.093,8.872-3.281q3.009-3.305,4.36-9.567" transform="translate(0 176.37)" fill="#2a3f91"/>
            <path id="path16" d="M51.182-48.913h58.1v13.234L71.953,3.187h38.613v14.28H47.615V3.687L84.554-34.776H51.182V-48.913" transform="translate(18.111 176.683)" fill="#2a3f91"/>
            <path id="path18" d="M95.532-48.913h27.1L132.9-8.5l10.292-40.415h26.985v66.38H153.345V-33.107L140.453,17.467H125.237L112.376-33.107V17.467H95.532v-66.38" transform="translate(36.337 176.683)" fill="#2a3f91"/>
            <path id="path20-2" data-name="path20" d="M.185-141.476c4.751,4.557,9.178,9.127,13.929,13.688a182.958,182.958,0,0,0,23.5,18.347c6.589,4.452,12.906,9.045,21.736,9.045a16.731,16.731,0,0,1,7.44-1.416c.71-.124,1.418-.234,2.122-.359,1.186-.227,2.373-.462,3.544-.7,4.012-1.839,19.485-1.066,25.142-1.066.474-.241,4.252-1.395,4.252-.352C104.62-91.811,78.525-100.972,81-87.383c.3,1.695,2.1,3.056,3.224,4.252,4.246,4.514,9.714,7.647,14.894,10.512,3.807,2.1,11.445,4.359,13.279,8.873.651,1.605-.63,2.37-.63,3.719-5.245-1.946-10.569-4.958-16.645-4.958v.357h.356c2.346,1.669,15.173,6.242,13.049,10.169-1.1,2-10.947-1.9-12.694-2.4q-3.535-1.123-7.072-2.245c-1.328.379-2.654.754-4,1.132a105.25,105.25,0,0,1-11.09-.61C67.711-61.1,61.888-66.431,57.173-71.3c-2.309-2.393-4.392-5.427-7.192-7.262Q40.916-83.376,31.847-88.2q-8.184-4.7-16.373-9.408-6.67-3.454-13.355-6.9c-.536-.431-1.39-.863-1.933-1.294v-35.678" transform="translate(0.071 141.476)" fill="#2a3f91"/>
            <path id="path22-2" data-name="path22" d="M101.232-83.177c2.078,1.42,4.155,2.856,6.222,4.273h.778v-.39Q104.737-81.239,101.232-83.177Z" transform="translate(-9.518 151.645)" fill="none" stroke="#fff" stroke-width="0.696"/>
          </g>
        </g>
      </g>
    </g>
  </g>
</svg>
