<?xml version="1.0" encoding="UTF-8" standalone="no"?>
<svg
   xmlns:dc="http://purl.org/dc/elements/1.1/"
   xmlns:cc="http://creativecommons.org/ns#"
   xmlns:rdf="http://www.w3.org/1999/02/22-rdf-syntax-ns#"
   xmlns:svg="http://www.w3.org/2000/svg"
   xmlns="http://www.w3.org/2000/svg"
   viewBox="0 0 151.29333 141.48"
   height="141.48"
   width="151.29333"
   xml:space="preserve"
   id="svg2"
   version="1.1"><metadata
     id="metadata8"><rdf:RDF><cc:Work
         rdf:about=""><dc:format>image/svg+xml</dc:format><dc:type
           rdf:resource="http://purl.org/dc/dcmitype/StillImage" /></cc:Work></rdf:RDF></metadata><defs
     id="defs6" /><g
     transform="matrix(1.3333333,0,0,-1.3333333,0,141.48)"
     id="g10"><g
       transform="scale(0.1)"
       id="g12"><path
         id="path14"
         style="fill:#2a3f91;fill-opacity:1;fill-rule:nonzero;stroke:none"
         d="M 252.816,153.574 350.563,124.18 C 343.969,96.7695 333.648,73.9258 319.555,55.5703 305.449,37.2109 287.957,23.3594 267.074,14 246.172,4.67188 219.586,0 187.285,0 148.168,0 116.16,5.69922 91.3242,17.1016 66.4648,28.4883 45.0391,48.5 27.0508,77.1992 9.00391,105.898 0,142.617 0,187.375 c 0,59.688 15.875,105.527 47.6211,137.586 31.7422,32.023 76.6169,48.066 134.7029,48.066 45.41,0 81.164,-9.168 107.176,-27.539 25.973,-18.34 45.277,-46.511 57.941,-84.519 l -98.507,-22.11 c -3.45,11.121 -7.055,19.2 -10.805,24.336 -6.234,8.614 -13.902,15.262 -22.906,19.903 -9.004,4.617 -19.086,6.941 -30.223,6.941 -25.27,0 -44.629,-10.176 -58.07,-30.516 -10.192,-15.097 -15.282,-38.82 -15.282,-71.144 0,-40.059 6.055,-67.5 18.215,-82.352 12.082,-14.8747 29.106,-22.2575 51.055,-22.2575 21.273,0 37.293,5.9375 48.207,17.8245 10.898,11.972 18.789,29.258 23.691,51.98" /><path
         id="path16"
         style="fill:#2a3f91;fill-opacity:1;fill-rule:nonzero;stroke:none"
         d="M 376.492,366.848 H 692.148 V 294.941 L 489.352,83.7695 H 699.148 V 6.17969 H 357.113 V 81.0547 L 557.816,290.039 H 376.492 v 76.809" /><path
         id="path18"
         style="fill:#2a3f91;fill-opacity:1;fill-rule:nonzero;stroke:none"
         d="m 716.488,366.848 h 147.254 l 55.789,-219.59 55.922,219.59 H 1122.07 V 6.17969 h -91.46 V 280.969 L 960.563,6.17969 H 877.891 L 808.012,280.969 V 6.17969 H 716.488 V 366.848" /><path
         id="path20"
         style="fill:#2a3f91;fill-opacity:1;fill-rule:nonzero;stroke:none"
         d="M 1.39063,1061.07 C 27.2031,1036.31 51.2578,1011.48 77.0703,986.699 117.957,948.266 160.223,917.121 204.77,887.012 c 35.8,-24.188 70.121,-49.145 118.101,-49.145 10.781,5.84 26.715,7.696 40.426,7.696 3.855,0.671 7.703,1.273 11.527,1.949 6.442,1.234 12.891,2.511 19.258,3.82 21.801,9.992 105.867,5.793 136.606,5.793 2.574,1.309 23.105,7.578 23.105,1.91 C 568.82,791.223 427.035,841 440.488,767.164 c 1.625,-9.207 11.414,-16.605 17.516,-23.101 23.07,-24.528 52.781,-41.551 80.922,-57.118 20.687,-11.425 62.183,-23.683 72.152,-48.211 3.539,-8.722 -3.422,-12.879 -3.422,-20.207 -28.496,10.571 -57.426,26.938 -90.441,26.938 0,-0.676 0,-1.348 0,-1.938 0.656,0 1.328,0 1.933,0 12.747,-9.07 82.438,-33.914 70.899,-55.25 -5.961,-10.875 -59.481,10.332 -68.973,13.063 -12.804,4.066 -25.621,8.105 -38.422,12.199 -7.214,-2.059 -14.422,-4.094 -21.714,-6.152 -4.825,-0.668 -56.891,1.933 -60.258,3.312 -32.399,13.653 -64.035,42.625 -89.657,69.086 -12.546,13 -23.863,29.488 -39.078,39.457 -32.832,17.434 -65.668,34.879 -98.527,52.36 -29.645,17.027 -59.309,34.046 -88.961,51.117 -24.1601,12.511 -48.3437,24.961 -72.5625,37.469 -2.91012,2.343 -7.55466,4.687 -10.50387,7.031 0,0.535 0,163.081 0,193.851" /><path
         id="path22"
         style="fill:none;stroke:#ffffff;stroke-width:5.21999979;stroke-linecap:butt;stroke-linejoin:miter;stroke-miterlimit:4;stroke-dasharray:none;stroke-opacity:1"
         d="m 759.242,623.828 c 16.781,-11.465 33.543,-23.055 50.235,-34.5 2.046,0 4.214,0 6.281,0 0,1.094 0,2.059 0,3.152 -18.813,10.469 -37.653,20.879 -56.516,31.348 z" /><path
         id="path24"
         style="fill:#40b13c;fill-opacity:1;fill-rule:nonzero;stroke:none"
         d="m 659.906,775.391 c 31.16,-0.985 73.821,-21.043 97.227,-37.934 7.515,-5.402 33.144,-26.672 40.933,-26.672 -2.199,7.149 -5.777,36.602 9.536,32.774 4.781,-5.454 9.582,-10.899 14.3,-16.34 4.5,-3.969 9.02,-8.024 13.477,-12.02 11.781,-13.875 23.219,-38.386 28.644,-55.461 5.004,-15.914 5.993,-37.422 15.625,-50.644 11.551,-15.875 219.492,-167.649 228.042,-167.649 0,-0.515 26.86,-15.859 26.86,-16.328 0,0 0.03,-31.289 0.14,-31.387 -0.11,0.098 -151.51,0 -151.639,0 -18.328,0 -127.438,108.536 -144.309,123.411 -18.488,16.289 -40.754,19.929 -61.144,32.234 -23.078,14.004 -41.535,36.184 -64.493,50.461 -22.578,14.039 -68.281,14.789 -86.816,29.621 -2.91,2.359 -4.496,9.102 -2.062,12.395 9.269,12.855 78.195,-7.657 91.238,-7.657 0,2.028 -0.52,1.508 1.496,1.508 -8.324,27.633 -111.504,44.586 -106.867,66.879 3.617,17.688 56.515,-5.301 69.32,-5.301 0,0.512 0,0.985 0,1.492 -11.68,2.684 -67.164,20.563 -61.809,36.559 6.063,18.266 52.891,-3.453 63.411,-6.109 7.742,-1.907 53.976,-18.618 53.976,-22.922 0.512,0 1.024,0 1.496,0 -13.843,16.418 -30.129,25.578 -48.05,34.535 -8.864,4.457 -21.887,8.039 -28.446,16.387 -3.898,4.91 -2.972,12.894 -0.086,18.168" /></g></g></svg>