<svg xmlns="http://www.w3.org/2000/svg" width="16" height="16" viewBox="0 0 16 16">
  <g id="Group_2138" data-name="Group 2138" transform="translate(-7450 1827)">
    <rect id="Rectangle_634" data-name="Rectangle 634" width="16" height="16" transform="translate(7450 -1827)" fill="#fff"/>
    <g id="Group_2137" data-name="Group 2137" transform="translate(1 -0.466)">
      <g id="g10" transform="translate(7450 -1825.534)">
        <g id="g12" transform="translate(0 0)">
          <path id="path14" d="M3.239-46.926l1.252.377a2.311,2.311,0,0,1-.4.879,1.726,1.726,0,0,1-.672.533,2.519,2.519,0,0,1-1.022.179,2.963,2.963,0,0,1-1.229-.219,1.942,1.942,0,0,1-.823-.77A2.611,2.611,0,0,1,0-47.359a2.4,2.4,0,0,1,.61-1.763,2.321,2.321,0,0,1,1.726-.616,2.345,2.345,0,0,1,1.373.353A2.074,2.074,0,0,1,4.451-48.3l-1.262.283a1.1,1.1,0,0,0-.138-.312.828.828,0,0,0-.293-.255.836.836,0,0,0-.387-.089.838.838,0,0,0-.744.391,1.661,1.661,0,0,0-.2.911,1.732,1.732,0,0,0,.233,1.055.8.8,0,0,0,.654.285.8.8,0,0,0,.618-.228,1.417,1.417,0,0,0,.3-.666" transform="translate(0 58.083)" fill="#2a3f91"/>
          <path id="path16" d="M47.863-48.913h4.044v.921l-2.6,2.705H52v.994H47.615v-.959l2.571-2.677H47.863v-.984" transform="translate(-43.282 57.339)" fill="#2a3f91"/>
          <path id="path18" d="M95.531-48.913h1.886l.715,2.813.716-2.813h1.878v4.62H99.555v-3.52l-.9,3.52H97.6l-.9-3.52v3.52H95.531v-4.62" transform="translate(-86.889 57.339)" fill="#2a3f91"/>
          <path id="path20" d="M.185-141.476c.331.317.639.635.969.953a12.735,12.735,0,0,0,1.636,1.277,2.651,2.651,0,0,0,1.513.63,1.164,1.164,0,0,1,.518-.1l.148-.025.247-.049a7.712,7.712,0,0,1,1.75-.074c.033-.017.3-.1.3-.024.193.869-1.624.231-1.451,1.177.021.118.146.213.224.3a4.114,4.114,0,0,0,1.037.732c.265.146.8.3.924.618.045.112-.044.165-.044.259a3.357,3.357,0,0,0-1.159-.345v.025h.025c.163.116,1.056.434.908.708-.076.139-.762-.132-.884-.167l-.492-.156-.278.079a7.319,7.319,0,0,1-.772-.042,3.864,3.864,0,0,1-1.149-.885,3.277,3.277,0,0,0-.5-.505l-1.262-.671-1.14-.655-.93-.48c-.037-.03-.1-.06-.135-.09v-2.483" transform="translate(-0.168 141.476)" fill="#2a3f91"/>
          <path id="path24" d="M81.965-103.385a2.679,2.679,0,0,1,1.246.486c.1.069.425.342.524.342-.028-.092-.074-.469.122-.42l.183.209.173.154a2.355,2.355,0,0,1,.367.71,2.311,2.311,0,0,0,.2.649A31.059,31.059,0,0,0,87.7-99.107c0,.007.344.2.344.209s0,.4,0,.4-1.941,0-1.943,0a12.582,12.582,0,0,1-1.849-1.581,4.633,4.633,0,0,0-.783-.413c-.3-.179-.532-.464-.826-.646s-.875-.189-1.112-.379a.137.137,0,0,1-.026-.159c.119-.165,1,.1,1.169.1,0-.026-.007-.019.019-.019-.107-.354-1.428-.571-1.369-.857.046-.227.724.068.888.068v-.019c-.15-.034-.86-.263-.792-.468.078-.234.678.044.812.078a2.8,2.8,0,0,1,.691.294h.019a1.792,1.792,0,0,0-.616-.442,1.029,1.029,0,0,1-.364-.21.224.224,0,0,1,0-.233" transform="translate(-74.048 106.341)" fill="#40b13c"/>
          <path id="Path_5615" data-name="Path 5615" d="M7.937,7.987,7.862,8.1l-.406-.5Z" transform="translate(-1.413 -3.137)" fill="none" stroke="#fff" stroke-width="0.05"/>
        </g>
      </g>
    </g>
  </g>
</svg>
